<svg version="1.1" id="Layer_1" xmlns="http://www.w3.org/2000/svg" xmlns:xlink="http://www.w3.org/1999/xlink" x="0px" y="0px"
	 width="100%" viewBox="0 0 1200 1200" enable-background="new 0 0 1200 1200" xml:space="preserve">
<path fill="#DC1A22" opacity="1.000000" stroke="none" 
	d="
M674.000000,1201.000000 
	C449.333344,1201.000000 225.166672,1201.000000 1.000000,1201.000000 
	C1.000000,801.000000 1.000000,401.000000 1.000000,1.000000 
	C401.000000,1.000000 801.000000,1.000000 1201.000000,1.000000 
	C1201.000000,401.000000 1201.000000,801.000000 1201.000000,1201.000000 
	C1025.500000,1201.000000 850.000000,1201.000000 674.000000,1201.000000 
M490.285980,1012.106567 
	C491.078857,1012.358093 491.861603,1012.649170 492.666077,1012.855469 
	C558.137634,1029.648071 624.032471,1031.809326 690.055847,1017.018005 
	C806.173523,991.003967 896.798401,927.648743 960.772156,827.505798 
	C1012.888977,745.923584 1033.655640,656.281189 1024.225464,559.736206 
	C1019.273010,509.034302 1005.920776,460.714264 983.542847,415.011414 
	C917.050537,279.213043 786.898376,189.994537 636.491516,176.842651 
	C573.790649,171.359970 512.735901,179.597458 453.877747,201.439621 
	C376.470856,230.165192 312.370087,277.531281 262.195587,343.267120 
	C211.945129,409.102509 183.173981,483.446747 176.297806,565.947998 
	C172.510056,611.393799 176.288269,656.487488 187.097443,700.841553 
	C207.831238,785.919800 250.957794,857.868530 315.588562,916.745667 
	C365.778870,962.467773 423.953552,994.035034 490.285980,1012.106567 
z"/>
<path fill="#FFFDFD" opacity="1.000000" stroke="none" 
	d="
M489.883667,1012.033325 
	C423.953552,994.035034 365.778870,962.467773 315.588562,916.745667 
	C250.957794,857.868530 207.831238,785.919800 187.097443,700.841553 
	C176.288269,656.487488 172.510056,611.393799 176.297806,565.947998 
	C183.173981,483.446747 211.945129,409.102509 262.195587,343.267120 
	C312.370087,277.531281 376.470856,230.165192 453.877747,201.439621 
	C512.735901,179.597458 573.790649,171.359970 636.491516,176.842651 
	C786.898376,189.994537 917.050537,279.213043 983.542847,415.011414 
	C1005.920776,460.714264 1019.273010,509.034302 1024.225464,559.736206 
	C1033.655640,656.281189 1012.888977,745.923584 960.772156,827.505798 
	C896.798401,927.648743 806.173523,991.003967 690.055847,1017.018005 
	C624.032471,1031.809326 558.137634,1029.648071 492.666077,1012.855469 
	C491.861603,1012.649170 491.078857,1012.358093 489.883667,1012.033325 
M985.631470,675.032837 
	C995.580444,624.663940 994.916809,574.203552 984.589172,524.138855 
	C963.655579,422.660217 910.967896,340.936188 826.427979,281.217316 
	C734.422668,216.224930 631.943542,195.737640 521.602661,217.516525 
	C444.915222,232.652954 378.567108,268.755615 323.843109,324.382874 
	C246.542542,402.959290 207.382172,497.658081 209.356476,608.476257 
	C210.382202,666.051208 223.508255,720.845398 248.813904,772.610046 
	C309.141479,896.014709 430.593414,980.220093 568.166809,991.297302 
	C625.668762,995.927246 681.591064,988.754211 735.561462,968.719177 
	C810.631287,940.851501 871.829346,894.232727 918.835938,829.311401 
	C952.299805,783.094116 974.417847,731.868652 985.631470,675.032837 
z"/>
<path fill="#DC1A22" opacity="1.000000" stroke="none" 
	d="
M985.511963,675.443298 
	C974.417847,731.868652 952.299805,783.094116 918.835938,829.311401 
	C871.829346,894.232727 810.631287,940.851501 735.561462,968.719177 
	C681.591064,988.754211 625.668762,995.927246 568.166809,991.297302 
	C430.593414,980.220093 309.141479,896.014709 248.813904,772.610046 
	C223.508255,720.845398 210.382202,666.051208 209.356476,608.476257 
	C207.382172,497.658081 246.542542,402.959290 323.843109,324.382874 
	C378.567108,268.755615 444.915222,232.652954 521.602661,217.516525 
	C631.943542,195.737640 734.422668,216.224930 826.427979,281.217316 
	C910.967896,340.936188 963.655579,422.660217 984.589172,524.138855 
	C994.916809,574.203552 995.580444,624.663940 985.511963,675.443298 
M784.882629,571.681030 
	C783.080444,548.030701 779.318359,524.745728 770.946838,502.448242 
	C755.303711,460.782318 728.027710,429.266205 688.010864,409.391724 
	C655.151367,393.071991 619.904907,385.139618 583.506042,384.255310 
	C535.046021,383.077942 486.542938,383.668762 438.058289,383.519165 
	C437.092255,383.516174 436.125488,383.748199 435.045227,383.884979 
	C435.045227,528.276001 435.045227,672.494019 435.045227,817.162415 
	C436.575043,817.162415 437.873077,817.162415 439.171112,817.162415 
	C482.826050,817.160400 526.486206,817.547546 570.133362,816.964478 
	C587.552856,816.731812 605.103271,815.388611 622.312500,812.729126 
	C652.361328,808.085571 680.679932,797.952942 705.765503,780.340881 
	C750.716309,748.782043 773.873474,704.167419 781.999207,650.866272 
	C785.955566,624.914429 786.746277,598.807373 784.882629,571.681030 
z"/>
<path fill="#FFFEFE" opacity="1.000000" stroke="none" 
	d="
M784.907898,572.150940 
	C786.746277,598.807373 785.955566,624.914429 781.999207,650.866272 
	C773.873474,704.167419 750.716309,748.782043 705.765503,780.340881 
	C680.679932,797.952942 652.361328,808.085571 622.312500,812.729126 
	C605.103271,815.388611 587.552856,816.731812 570.133362,816.964478 
	C526.486206,817.547546 482.826050,817.160400 439.171112,817.162415 
	C437.873077,817.162415 436.575043,817.162415 435.045227,817.162415 
	C435.045227,672.494019 435.045227,528.276001 435.045227,383.884979 
	C436.125488,383.748199 437.092255,383.516174 438.058289,383.519165 
	C486.542938,383.668762 535.046021,383.077942 583.506042,384.255310 
	C619.904907,385.139618 655.151367,393.071991 688.010864,409.391724 
	C728.027710,429.266205 755.303711,460.782318 770.946838,502.448242 
	C779.318359,524.745728 783.080444,548.030701 784.907898,572.150940 
M618.644531,487.772827 
	C596.806641,477.999725 573.784241,475.160614 549.833313,475.632202 
	C549.833313,558.924072 549.833313,641.781189 549.833313,725.162964 
	C551.628540,725.162964 553.268677,725.328308 554.866028,725.136902 
	C568.361572,723.519897 582.048401,722.782166 595.300781,719.990845 
	C629.649841,712.755920 651.232361,690.809326 660.788696,657.759460 
	C671.198242,621.758545 670.855103,585.044922 663.237915,548.513062 
	C657.705261,521.978333 643.867493,501.016876 618.644531,487.772827 
z"/>
<path fill="#DC1A22" opacity="1.000000" stroke="none" 
	d="
M618.995300,487.906006 
	C643.867493,501.016876 657.705261,521.978333 663.237915,548.513062 
	C670.855103,585.044922 671.198242,621.758545 660.788696,657.759460 
	C651.232361,690.809326 629.649841,712.755920 595.300781,719.990845 
	C582.048401,722.782166 568.361572,723.519897 554.866028,725.136902 
	C553.268677,725.328308 551.628540,725.162964 549.833313,725.162964 
	C549.833313,641.781189 549.833313,558.924072 549.833313,475.632202 
	C573.784241,475.160614 596.806641,477.999725 618.995300,487.906006 
z"/>
</svg>